<svg width="32" height="32" viewBox="0 0 32 32" fill="none" xmlns="http://www.w3.org/2000/svg">
<path fill-rule="evenodd" clip-rule="evenodd" d="M20.9667 29.3334V19.0067H24.4334L24.9521 14.9827H20.9654V12.4134C20.9654 11.2481 21.2894 10.4534 22.9614 10.4534H25.0921V6.85341C24.0603 6.74255 23.0231 6.68914 21.9854 6.69341C18.9134 6.69341 16.8107 8.56941 16.8107 12.0134V14.9827H13.3334V19.0067H16.8094V29.3334H4.13875C3.32541 29.3334 2.66675 28.6747 2.66675 27.8614V4.13875C2.66675 3.32541 3.32541 2.66675 4.13875 2.66675H27.8614C28.6747 2.66675 29.3334 3.32541 29.3334 4.13875V27.8614C29.3334 28.6747 28.6747 29.3334 27.8614 29.3334H20.9667Z" fill="black"/>
</svg>
